<svg width="512" height="512" viewBox="0 0 512 512" fill="none" xmlns="http://www.w3.org/2000/svg">
  <rect width="512" height="512" rx="85" fill="#10b981"/>
  <path d="M256 107C174.2 107 107 174.2 107 256s67.2 149 149 149 149-67.2 149-149-67.2-149-149-149zm0 256c-59 0-107-48-107-107s48-107 107-107 107 48 107 107-48 107-107 107z" fill="#ffffff"/>
  <path d="M256 192c-35.3 0-64 28.7-64 64s28.7 64 64 64 64-28.7 64-64-28.7-64-64-64zm0 85c-11.6 0-21-9.4-21-21s9.4-21 21-21 21 9.4 21 21-9.4 21-21 21z" fill="#ffffff"/>
  <path d="M309 149l-21 43M203 149l21 43M149 203l43 21M149 309l43-21M203 363l21-43M309 363l-21-43M363 309l-43-21M363 203l-43 21" stroke="#ffffff" stroke-width="11" stroke-linecap="round"/>
</svg>
